<svg height="512pt" viewBox="0 -20 512 512" width="512pt" xmlns="http://www.w3.org/2000/svg" fill="white"><path d="m482 0h-160.054688c-9.34375 0-18.285156 4.445312-23.921874 11.894531l-46.996094 62.105469h-221.027344c-16.542969 0-30 13.457031-30 30v318c0 27.570312 22.429688 50 50 50h412c27.570312 0 50-22.429688 50-50v-392c0-16.542969-13.457031-30-30-30zm10 422c0 16.542969-13.457031 30-30 30h-372.023438c6.289063-8.363281 10.023438-18.753906 10.023438-30v-264c0-5.515625 4.484375-10 10-10h146.410156c5.519532 0 10-4.476562 10-10s-4.480468-10-10-10h-146.410156c-16.542969 0-30 13.457031-30 30v264c0 16.542969-13.457031 30-30 30s-30-13.457031-30-30v-318c0-5.515625 4.484375-10 10-10h226c3.132812 0 6.085938-1.46875 7.972656-3.964844l50-66.070312c1.878906-2.480469 4.859375-3.964844 7.972656-3.964844h160.054688c5.515625 0 10 4.488281 10 10v98h-155.585938c-5.523437 0-10 4.476562-10 10s4.476563 10 10 10h155.585938zm0 0"/><path d="m296.410156 148c2.628906 0 5.210938-1.070312 7.070313-2.929688 1.859375-1.859374 2.929687-4.441406 2.929687-7.070312s-1.070312-5.210938-2.929687-7.070312c-1.859375-1.859376-4.441407-2.929688-7.070313-2.929688-2.632812 0-5.210937 1.070312-7.070312 2.929688-1.859375 1.859374-2.929688 4.441406-2.929688 7.070312s1.070313 5.210938 2.929688 7.070312c1.859375 1.859376 4.4375 2.929688 7.070312 2.929688zm0 0"/><path d="m187.40625 307.03125c0 32.066406 13.921875 60.941406 36.035156 80.902344.445313.488281.945313.925781 1.484375 1.320312 19.152344 16.671875 44.160157 26.777344 71.480469 26.777344s52.320312-10.101562 71.472656-26.769531c.550782-.398438 1.058594-.847657 1.511719-1.339844 22.101563-19.964844 36.015625-48.832031 36.015625-80.890625 0-60.101562-48.894531-109-109-109-60.101562 0-109 48.898438-109 109zm55.039062 70.722656c8.628907-21.902344 29.984376-36.722656 53.960938-36.722656 23.980469 0 45.332031 14.820312 53.964844 36.722656-14.980469 11.460938-33.6875 18.277344-53.964844 18.277344-20.273438 0-38.980469-6.820312-53.960938-18.277344zm32.914063-77.769531v-7.761719c0-11.609375 9.441406-21.050781 21.046875-21.050781 11.609375 0 21.050781 9.441406 21.050781 21.050781v7.761719c0 11.605469-9.441406 21.046875-21.050781 21.046875-11.605469 0-21.046875-9.441406-21.046875-21.046875zm110.046875 7.046875c0 21.175781-7.433594 40.640625-19.828125 55.9375-8.394531-16.066406-22.128906-28.621094-38.574219-35.65625 6.492188-7.261719 10.453125-16.839844 10.453125-27.328125v-7.761719c0-22.632812-18.414062-41.050781-41.050781-41.050781-22.632812 0-41.046875 18.417969-41.046875 41.050781v7.761719c0 10.488281 3.957031 20.066406 10.453125 27.328125-16.445312 7.035156-30.183594 19.59375-38.574219 35.65625-12.394531-15.292969-19.832031-34.761719-19.832031-55.9375 0-49.074219 39.925781-89 89-89 49.078125 0 89 39.925781 89 89zm0 0"/></svg>